<svg width="347" height="410" viewBox="0 0 347 410" fill="none" xmlns="http://www.w3.org/2000/svg">
  <rect y="328.182" width="293" height="47" rx="21" transform="rotate(-45 0 328.182)" fill="#EB5B49"/>
  <rect x="132" y="317.182" width="146.792" height="47" rx="21" transform="rotate(-45 132 317.182)" fill="#283583"/>
  <rect x="253" y="110.151" width="85.8802" height="47" rx="21" transform="rotate(-45 253 110.151)" fill="black"/>
  <path
    d="M309.5 213C323.031 213 334 202.031 334 188.5C334 174.969 323.031 164 309.5 164C295.969 164 285 174.969 285 188.5C285 202.031 295.969 213 309.5 213Z"
    fill="#D8D8D8"/>
  <path
    d="M62.5 410C76.031 410 87 399.031 87 385.5C87 371.969 76.031 361 62.5 361C48.969 361 38 371.969 38 385.5C38 399.031 48.969 410 62.5 410Z"
    fill="#283583"/>
  <path
    d="M258 26C265.18 26 271 20.1797 271 13C271 5.8203 265.18 0 258 0C250.82 0 245 5.8203 245 13C245 20.1797 250.82 26 258 26Z"
    fill="black"/>
  <path
    d="M63 189C70.1797 189 76 183.18 76 176C76 168.82 70.1797 163 63 163C55.8203 163 50 168.82 50 176C50 183.18 55.8203 189 63 189Z"
    fill="black"/>
  <rect x="85" y="124.798" width="146.792" height="47" rx="21" transform="rotate(-45 85 124.798)" fill="#EB5B49"/>
</svg>
