<svg width="347" height="410" viewBox="0 0 347 410" fill="none" xmlns="http://www.w3.org/2000/svg">
  <rect width="293" height="47" rx="21" transform="matrix(-0.707107 -0.707107 -0.707107 0.707107 347 328.182)"
        fill="#EB5B49"/>
  <rect width="146.792" height="47" rx="21" transform="matrix(-0.707107 -0.707107 -0.707107 0.707107 215 317.182)"
        fill="#283583"/>
  <rect width="85.8802" height="47" rx="21" transform="matrix(-0.707107 -0.707107 -0.707107 0.707107 94 110.151)"
        fill="black"/>
  <path
    d="M37.5 213C23.969 213 13 202.031 13 188.5C13 174.969 23.969 164 37.5 164C51.031 164 62 174.969 62 188.5C62 202.031 51.031 213 37.5 213Z"
    fill="#283583"/>
  <path
    d="M284.5 410C270.969 410 260 399.031 260 385.5C260 371.969 270.969 361 284.5 361C298.031 361 309 371.969 309 385.5C309 399.031 298.031 410 284.5 410Z"
    fill="#283583"/>
  <path
    d="M89 26C81.8203 26 76 20.1797 76 13C76 5.8203 81.8203 0 89 0C96.1797 0 102 5.8203 102 13C102 20.1797 96.1797 26 89 26Z"
    fill="black"/>
  <path
    d="M284 189C276.82 189 271 183.18 271 176C271 168.82 276.82 163 284 163C291.18 163 297 168.82 297 176C297 183.18 291.18 189 284 189Z"
    fill="black"/>
  <rect width="146.792" height="47" rx="21" transform="matrix(-0.707107 -0.707107 -0.707107 0.707107 262 124.798)"
        fill="#EB5B49"/>
</svg>
